<svg width="37" height="37" viewBox="0 0 37 37" fill="none" xmlns="http://www.w3.org/2000/svg">
<g clip-path="url(#clip0_5_172)">
<path d="M36.125 16.0938C35.7355 16.0938 35.3619 16.2485 35.0864 16.5239C34.811 16.7994 34.6562 17.173 34.6562 17.5625V29.3125C34.6562 29.702 34.5015 30.0756 34.2261 30.3511C33.9506 30.6265 33.577 30.7812 33.1875 30.7812H3.8125C3.42296 30.7812 3.04938 30.6265 2.77394 30.3511C2.49849 30.0756 2.34375 29.702 2.34375 29.3125V17.5625C2.34375 17.173 2.18901 16.7994 1.91356 16.5239C1.63812 16.2485 1.26454 16.0938 0.875 16.0938C0.485463 16.0938 0.111881 16.2485 -0.163563 16.5239C-0.439007 16.7994 -0.59375 17.173 -0.59375 17.5625V29.3125C-0.592722 30.4807 -0.127818 31.6007 0.69875 32.4263C1.52429 33.2528 2.64428 33.7177 3.8125 33.7188H33.1875C34.3557 33.7177 35.4757 33.2528 36.3013 32.4263C37.1278 31.6007 37.5927 30.4807 37.5938 29.3125V17.5625C37.5938 17.173 37.439 16.7994 37.1636 16.5239C36.8881 16.2485 36.5145 16.0938 36.125 16.0938Z" fill="white"/>
<path d="M17.6187 24.6125C17.873 24.8032 18.1822 24.9062 18.5 24.9062C18.8178 24.9062 19.127 24.8032 19.3812 24.6125L36.7272 11.5994C36.9978 11.3953 37.1895 11.104 37.2698 10.7747C37.3501 10.4454 37.3141 10.0985 37.1678 9.79281C36.9491 9.34091 36.6562 8.92885 36.3012 8.57375C35.4757 7.74718 34.3557 7.28228 33.1875 7.28125H3.81249C2.64427 7.28228 1.52428 7.74718 0.698736 8.57375C0.34382 8.92885 0.0509106 9.34091 -0.167827 9.79281C-0.31409 10.0985 -0.350122 10.4454 -0.269815 10.7747C-0.189507 11.104 0.0021983 11.3953 0.272798 11.5994L17.6187 24.6125ZM3.81249 10.2188H33.1875C33.3237 10.1973 33.4625 10.1973 33.5987 10.2188L18.5 21.6016L3.40124 10.2188C3.53748 10.1973 3.67624 10.1973 3.81249 10.2188Z" fill="white"/>
</g>
<defs>
<clipPath id="clip0_5_172">
<rect width="37" height="37" fill="white"/>
</clipPath>
</defs>
</svg>
