<svg width="63" height="72" viewBox="0 0 63 72" fill="none" xmlns="http://www.w3.org/2000/svg">
<g clip-path="url(#clip0_74_20)">
<path d="M7.48266 65.6717C7.70231 69.1648 10.7198 71.9998 14.2186 71.9998H48.7842C52.283 71.9998 55.2994 69.1648 55.5202 65.6717L58.5 17.9998H4.5L7.48266 65.6717ZM60.75 4.49983H45L43.3716 1.24296C42.9906 0.480768 42.2114 -0.000732422 41.3592 -0.000732422H21.6422C20.7899 -0.000732422 20.0109 0.480768 19.6298 1.24296L18 4.49983H2.25C1.00744 4.49983 0 5.50699 0 6.74983V11.2498C0 12.4924 1.00744 13.4998 2.25 13.4998H60.75C61.9928 13.4998 63 12.4924 63 11.2498V6.74983C63 5.50671 61.9875 4.49983 60.75 4.49983Z" fill="#003391"/>
</g>
<defs>
<clipPath id="clip0_74_20">
<rect width="63" height="72" fill="white"/>
</clipPath>
</defs>
</svg>
