<svg width="44" height="44" viewBox="0 0 44 44" fill="none" xmlns="http://www.w3.org/2000/svg">
<path d="M22.5 27C27.7467 27 32 21.8513 32 15.5C32 9.14873 27.7467 4 22.5 4C17.2533 4 13 9.14873 13 15.5C13 21.8513 17.2533 27 22.5 27Z" fill="#003391"/>
<path d="M22.5 25C26.6421 25 30 20.7467 30 15.5C30 10.2533 26.6421 6 22.5 6C18.3579 6 15 10.2533 15 15.5C15 20.7467 18.3579 25 22.5 25Z" fill="white"/>
<path d="M42.5582 35.9912C40.7161 32.2616 37.2367 29.1536 32.7338 27.2888C31.5057 26.8744 30.073 26.8744 29.0496 27.496C27.0029 28.7392 24.9561 29.3608 22.5 29.3608C20.0439 29.3608 17.9971 28.7392 15.9504 27.496C14.927 27.0816 13.4943 26.8744 12.2662 27.496C7.76335 29.3608 4.28386 32.4688 2.44178 36.1984C1.00905 38.892 3.26048 42 6.33062 42H38.6694C41.7395 42 43.991 38.892 42.5582 35.9912Z" fill="#003391"/>
<path d="M40.6121 35.5936C38.9947 32.8585 35.9395 30.5793 31.9858 29.2118C30.9075 28.9079 29.6495 28.9079 28.7509 29.3637C26.9537 30.2754 25.1566 30.7313 23 30.7313C20.8434 30.7313 19.0463 30.2754 17.2491 29.3637C16.3505 29.0598 15.0925 28.9079 14.0142 29.3637C10.0605 30.7313 7.00534 33.0105 5.3879 35.7455C4.12989 37.7208 6.10676 40 8.80249 40H37.1975C39.8932 40 41.8701 37.7208 40.6121 35.5936Z" fill="white"/>
</svg>
