<svg width="73" height="65" viewBox="0 0 73 65" fill="none" xmlns="http://www.w3.org/2000/svg">
<path d="M36.4999 9.625C51.4736 9.625 64.585 18.3585 71.2214 31.3256C71.4044 31.6895 71.4999 32.0915 71.4999 32.4994C71.4999 32.9073 71.4044 33.3095 71.2212 33.6735C64.5885 46.6354 51.4734 55.375 36.4999 55.375C21.5263 55.375 8.41485 46.6415 1.77844 33.6744C1.59541 33.3104 1.5 32.9084 1.5 32.5006C1.5 32.0928 1.59543 31.6908 1.77848 31.3268C8.41114 18.3647 21.5264 9.625 36.4999 9.625ZM25.5264 48.9468C28.7742 51.1206 32.5927 52.2811 36.4992 52.2812L56.2499 32.4993C56.2498 28.5877 55.0918 24.7639 52.9221 21.5111C50.7523 18.2581 47.6679 15.7224 44.0588 14.2249C40.4496 12.7273 36.478 12.3355 32.6464 13.0989C28.8148 13.8624 25.2956 15.7468 22.5337 18.5135C19.7718 21.2801 17.8912 24.8047 17.1293 28.6414C16.3675 32.478 16.7585 36.4549 18.253 40.0691C19.7475 43.6834 22.2785 46.773 25.5264 48.9468ZM36.4999 52.2812C39.0941 52.2824 41.663 51.7715 44.0598 50.7777C46.4568 49.7838 48.6346 48.3265 50.4688 46.4892C52.303 44.6519 53.7575 42.4706 54.7494 40.0702C55.7412 37.6699 56.2511 35.0976 56.2499 32.5L36.4999 52.2812ZM25.9295 31.5507C26.9006 31.8878 27.9378 32.026 28.9786 31.9471C30.7832 31.8104 32.4786 31.0304 33.7575 29.7493C35.0364 28.4682 35.8143 26.7708 35.9506 24.9652C36.0304 23.9087 35.8875 22.8558 35.5405 21.8718C35.863 21.8371 36.1872 21.8173 36.5122 21.8125C38.734 21.8091 40.9014 22.5027 42.7101 23.7965C44.5212 25.092 45.8815 26.9241 46.5992 29.0353C47.3168 31.1465 47.3555 33.43 46.7098 35.5644C46.064 37.6988 44.7665 39.5762 43.0002 40.9325C41.2341 42.2888 39.0881 43.0559 36.8643 43.1263C34.6406 43.1967 32.4506 42.5667 30.6026 41.3249C28.7545 40.083 27.3413 38.2915 26.5624 36.2023C26.0063 34.7107 25.7935 33.1212 25.9295 31.5507Z" stroke="#003391" stroke-width="3"/>
</svg>
