<svg width="38" height="38" viewBox="0 0 38 38" fill="none" xmlns="http://www.w3.org/2000/svg">
<path d="M33.9506 5.09434C33.5824 4.78507 33.137 4.58188 32.6621 4.50656C32.1872 4.43125 31.7008 4.48666 31.255 4.66684L4.04934 15.5562C3.65276 15.7209 3.31388 15.9995 3.07547 16.3567C2.83707 16.7139 2.70984 17.1337 2.70984 17.5631C2.70984 17.9925 2.83707 18.4123 3.07547 18.7695C3.31388 19.1267 3.65276 19.4052 4.04934 19.57L5.80684 20.2943C6.09662 20.4169 6.4232 20.4195 6.71486 20.3015C7.00653 20.1835 7.23945 19.9546 7.36247 19.665C7.42282 19.5208 7.4541 19.366 7.45451 19.2097C7.45493 19.0534 7.42448 18.8985 7.3649 18.754C7.30532 18.6095 7.21779 18.4781 7.10733 18.3675C6.99687 18.2569 6.86566 18.1691 6.72122 18.1093L5.41497 17.575L32.1456 6.88747C32.1867 6.86227 32.2339 6.84893 32.2822 6.84893C32.3304 6.84893 32.3776 6.86227 32.4187 6.88747C32.4575 6.92038 32.4867 6.96306 32.5034 7.01109C32.5201 7.05911 32.5237 7.11073 32.5137 7.16059L27.6331 29.9368C27.6171 30.018 27.5802 30.0935 27.526 30.156C27.4719 30.2185 27.4024 30.2657 27.3243 30.2931C27.2478 30.3235 27.1645 30.3329 27.0831 30.3204C27.0017 30.3078 26.9251 30.2738 26.8612 30.2218L17.3612 22.8118L26.6593 13.4187C26.858 13.2126 26.9755 12.9418 26.9903 12.6559C27.005 12.3701 26.9161 12.0885 26.7398 11.8631C26.5634 11.6376 26.3116 11.4834 26.0307 11.4289C25.7497 11.3743 25.4585 11.4231 25.2106 11.5662L11.5781 19.6412C11.4267 19.7096 11.2913 19.8091 11.1807 19.9331C11.0702 20.0571 10.9869 20.203 10.9362 20.3612C10.8855 20.5195 10.8686 20.6866 10.8866 20.8518C10.9046 21.017 10.957 21.1766 11.0405 21.3202C11.1241 21.4638 11.2368 21.5884 11.3715 21.6857C11.5061 21.783 11.6597 21.8511 11.8223 21.8853C11.9849 21.9196 12.1528 21.9193 12.3153 21.8846C12.4778 21.8499 12.6312 21.7814 12.7656 21.6837L18.5012 18.2993L15.7106 21.1375C15.4553 21.3773 15.2562 21.6707 15.1276 21.9965C14.9991 22.3224 14.9442 22.6727 14.9669 23.0222C14.9896 23.3718 15.0893 23.712 15.2589 24.0185C15.4286 24.325 15.6639 24.5901 15.9481 24.795L25.4481 32.0981C25.9481 32.484 26.5621 32.6928 27.1937 32.6918C27.53 32.6894 27.8634 32.6292 28.1793 32.5137C28.633 32.3509 29.0372 32.0743 29.3532 31.7104C29.6693 31.3465 29.8866 30.9075 29.9843 30.4356L34.8293 7.68309C34.9322 7.21247 34.9047 6.72271 34.7499 6.26655C34.595 5.81039 34.3187 5.40511 33.9506 5.09434Z" fill="white"/>
</svg>
