<svg width="46" height="48" viewBox="0 0 46 48" fill="none" xmlns="http://www.w3.org/2000/svg">
<g clip-path="url(#clip0_3_98)">
<path d="M21.5 43C23.9853 43 26 40.9853 26 38.5C26 36.0147 23.9853 34 21.5 34C19.0147 34 17 36.0147 17 38.5C17 40.9853 19.0147 43 21.5 43Z" fill="#003391"/>
<path d="M21.5 41C22.8807 41 24 39.8807 24 38.5C24 37.1193 22.8807 36 21.5 36C20.1193 36 19 37.1193 19 38.5C19 39.8807 20.1193 41 21.5 41Z" fill="white"/>
<path d="M21.5 41C22.8807 41 24 39.8807 24 38.5C24 37.1193 22.8807 36 21.5 36C20.1193 36 19 37.1193 19 38.5C19 39.8807 20.1193 41 21.5 41Z" fill="white"/>
<path d="M34.5 43C36.9853 43 39 40.9853 39 38.5C39 36.0147 36.9853 34 34.5 34C32.0147 34 30 36.0147 30 38.5C30 40.9853 32.0147 43 34.5 43Z" fill="#003391"/>
<path d="M41.8804 11.6726H14.3606C14.2978 11.6726 14.235 11.6906 14.1722 11.6906L13.4726 8.19228C13.347 7.26838 12.7101 6.71224 11.5171 6.55078H1.47977C-0.807564 6.55975 -0.870354 12.1929 4.35912 11.4663L9.41817 11.4215L10.3152 15.6284V15.6373L13.042 29.1102C14.1722 32.8125 14.3606 33.0749 17.0875 33.0749H39.1535C41.3781 33.0749 42.5 31.5 43.199 29.1102L45.9259 15.6373C45.9259 13.4576 44.105 11.6726 41.8804 11.6726Z" fill="#003391"/>
<path d="M40.9999 14H12.9999L11.563 8C3.56302 8 12.2814 11 11.563 8H1.50004C1.50004 8 0.499977 9.5 3.00004 9.5H10.5L14.9999 29C15.4999 31 15.3687 31 17.4999 31H38.4999C40.6312 31 41.1125 29.9915 41.4999 28.2547L43.9999 15.7673C43.9999 14.5 43.1312 14 40.9999 14Z" fill="white"/>
<path d="M34.5 41C35.8807 41 37 39.8807 37 38.5C37 37.1193 35.8807 36 34.5 36C33.1193 36 32 37.1193 32 38.5C32 39.8807 33.1193 41 34.5 41Z" fill="white"/>
<path d="M34.5 41C35.8807 41 37 39.8807 37 38.5C37 37.1193 35.8807 36 34.5 36C33.1193 36 32 37.1193 32 38.5C32 39.8807 33.1193 41 34.5 41Z" fill="white"/>
</g>
<defs>
<clipPath id="clip0_3_98">
<rect width="46" height="48" fill="white"/>
</clipPath>
</defs>
</svg>
