<svg width="46" height="37" viewBox="0 0 46 37" fill="none" xmlns="http://www.w3.org/2000/svg">
<path d="M21.5 37C23.9853 37 26 34.9853 26 32.5C26 30.0147 23.9853 28 21.5 28C19.0147 28 17 30.0147 17 32.5C17 34.9853 19.0147 37 21.5 37Z" fill="#003391"/>
<path d="M21.5 35C22.8807 35 24 33.8807 24 32.5C24 31.1193 22.8807 30 21.5 30C20.1193 30 19 31.1193 19 32.5C19 33.8807 20.1193 35 21.5 35Z" fill="#003391"/>
<path d="M21.5 35C22.8807 35 24 33.8807 24 32.5C24 31.1193 22.8807 30 21.5 30C20.1193 30 19 31.1193 19 32.5C19 33.8807 20.1193 35 21.5 35Z" fill="#003391"/>
<path d="M34.5 37C36.9853 37 39 34.9853 39 32.5C39 30.0147 36.9853 28 34.5 28C32.0147 28 30 30.0147 30 32.5C30 34.9853 32.0147 37 34.5 37Z" fill="#003391"/>
<path d="M41.8804 5.67262H14.3606C14.2978 5.67262 14.235 5.69056 14.1722 5.69056L13.4726 2.19228C13.347 1.26838 12.7101 0.71224 11.5171 0.550781H1.47977C-0.807564 0.559751 -0.870354 6.19288 4.35912 5.46631L9.41817 5.42146L10.3152 9.62837V9.63734L13.042 23.1102C14.1722 26.8125 14.3606 27.0749 17.0875 27.0749H39.1535C41.3781 27.0749 42.5 25.5 43.199 23.1102L45.9259 9.63734C45.9259 7.45764 44.105 5.67262 41.8804 5.67262Z" fill="#003391"/>
<path d="M40.9999 8H12.9999L11.563 2C3.56302 2 12.2814 5 11.563 2H1.50004C1.50004 2 0.499977 3.5 3.00004 3.5H10.5L14.9999 23C15.4999 25 15.3687 25 17.4999 25H38.4999C40.6312 25 41.1125 23.9915 41.4999 22.2547L43.9999 9.76733C43.9999 8.5 43.1312 8 40.9999 8Z" fill="#003391"/>
<path d="M34.5 35C35.8807 35 37 33.8807 37 32.5C37 31.1193 35.8807 30 34.5 30C33.1193 30 32 31.1193 32 32.5C32 33.8807 33.1193 35 34.5 35Z" fill="#003391"/>
<path d="M34.5 35C35.8807 35 37 33.8807 37 32.5C37 31.1193 35.8807 30 34.5 30C33.1193 30 32 31.1193 32 32.5C32 33.8807 33.1193 35 34.5 35Z" fill="#003391"/>
</svg>
