<svg width="98" height="112" viewBox="0 0 98 112" fill="none" xmlns="http://www.w3.org/2000/svg">
<path d="M14.1348 102C14.3941 106.117 17.9963 109.5 22.1178 109.5H75.8866C80.0071 109.5 83.6083 106.118 83.8696 102L14.1348 102ZM14.1348 102C14.1348 102 14.1348 102 14.1348 101.999L9.66131 30.5007H88.3389L83.8697 101.999L14.1348 102ZM25.5 47V93.5H30.5V47H25.5ZM72.5 93.5V47H67.5V93.5H72.5ZM67.7639 8.11886L68.4549 9.50082H70H94.5C95.0484 9.50082 95.5 9.95185 95.5 10.5008V17.5007C95.5 18.0531 95.0524 18.5007 94.5 18.5007H3.5C2.94782 18.5007 2.5 18.0529 2.5 17.5007V10.5008C2.5 9.94843 2.94761 9.50082 3.5 9.50082H28H29.5445L30.2357 8.11963L32.771 3.05342L32.7714 3.05265C32.9407 2.71392 33.2868 2.5 33.6656 2.5H64.3366C64.7155 2.5 65.0616 2.71419 65.2306 3.05232L65.2308 3.05265L67.7639 8.11886Z" stroke="#003391" stroke-width="5"/>
</svg>
