<svg width="119" height="117" viewBox="0 0 119 117" fill="none" xmlns="http://www.w3.org/2000/svg">
<g clip-path="url(#clip0_74_5)">
<path d="M114.2 108.3H4.8002C2.5002 108.3 0.700195 110.2 0.700195 112.4C0.700195 114.6 2.6002 116.5 4.8002 116.5H114.3C116.6 116.5 118.4 114.6 118.4 112.4C118.4 110.2 116.5 108.3 114.2 108.3Z" fill="#003391"/>
<path d="M0.700098 72L0.600098 91.5C0.600098 92.6 1.0001 93.7 1.8001 94.5C2.6001 95.3 3.6001 95.7 4.7001 95.7L24.1001 95.6C25.2001 95.6 26.2001 95.2 27.0001 94.4L94.0001 27.4C95.6001 25.8 95.6001 23.2 94.0001 21.5L74.8001 2.09999C73.2001 0.499994 70.6001 0.499994 68.9001 2.09999L55.5001 15.6L1.9001 69.1C1.2001 69.9 0.700098 70.9 0.700098 72ZM71.9001 10.9L85.4001 24.4L77.8001 32L64.3001 18.5L71.9001 10.9ZM9.0001 73.8L58.4001 24.4L71.9001 37.9L22.5001 87.2L8.9001 87.3L9.0001 73.8Z" fill="#003391"/>
</g>
<defs>
<clipPath id="clip0_74_5">
<rect width="119" height="117" fill="white"/>
</clipPath>
</defs>
</svg>
