<svg width="41" height="38" viewBox="0 0 41 38" fill="none" xmlns="http://www.w3.org/2000/svg">
<path d="M20.5 23C25.7467 23 30 17.8513 30 11.5C30 5.14873 25.7467 0 20.5 0C15.2533 0 11 5.14873 11 11.5C11 17.8513 15.2533 23 20.5 23Z" fill="#003391"/>
<path d="M20.5 21C24.6421 21 28 16.7467 28 11.5C28 6.25329 24.6421 2 20.5 2C16.3579 2 13 6.25329 13 11.5C13 16.7467 16.3579 21 20.5 21Z" fill="#003391"/>
<path d="M40.5582 31.9912C38.7161 28.2616 35.2367 25.1536 30.7338 23.2888C29.5057 22.8744 28.073 22.8744 27.0496 23.496C25.0029 24.7392 22.9561 25.3608 20.5 25.3608C18.0439 25.3608 15.9971 24.7392 13.9504 23.496C12.927 23.0816 11.4943 22.8744 10.2662 23.496C5.76335 25.3608 2.28386 28.4688 0.441776 32.1984C-0.990954 34.892 1.26048 38 4.33062 38H36.6694C39.7395 38 41.991 34.892 40.5582 31.9912Z" fill="#003391"/>
<path d="M38.6121 31.5936C36.9947 28.8585 33.9395 26.5793 29.9858 25.2118C28.9075 24.9079 27.6495 24.9079 26.7509 25.3637C24.9537 26.2754 23.1566 26.7313 21 26.7313C18.8434 26.7313 17.0463 26.2754 15.2491 25.3637C14.3505 25.0598 13.0925 24.9079 12.0142 25.3637C8.0605 26.7313 5.00534 29.0105 3.3879 31.7455C2.12989 33.7208 4.10676 36 6.80249 36H35.1975C37.8932 36 39.8701 33.7208 38.6121 31.5936Z" fill="#003391"/>
</svg>
