<svg width="34" height="34" viewBox="0 0 34 34" fill="none" xmlns="http://www.w3.org/2000/svg">
<path d="M13.2629 12.9738C13.2629 12.9738 8.78621 13.4697 5.79988 13.8012C5.53071 13.8338 5.29271 14.0137 5.20346 14.2871C5.11421 14.5605 5.20346 14.8453 5.4018 15.0252C7.6203 17.0496 10.9537 20.0813 10.9537 20.0813C10.9509 20.0813 10.0385 24.4913 9.43221 27.4338C9.38121 27.7001 9.47755 27.982 9.70988 28.1506C9.9408 28.3192 10.2383 28.322 10.472 28.1903C13.0844 26.7056 16.9972 24.4729 16.9972 24.4729C16.9972 24.4729 20.9115 26.7056 23.5195 28.1917C23.7575 28.322 24.055 28.3192 24.286 28.1506C24.5183 27.982 24.6146 27.7001 24.5622 27.4352C23.9559 24.4913 23.045 20.0813 23.045 20.0813C23.045 20.0813 26.3784 17.0496 28.5969 15.0294C28.7952 14.8438 28.883 14.5591 28.7952 14.2871C28.7074 14.0151 28.4694 13.8352 28.2002 13.804C25.2139 13.4697 20.7358 12.9738 20.7358 12.9738C20.7358 12.9738 18.88 8.86834 17.6432 6.13134C17.527 5.88626 17.2834 5.71484 16.9972 5.71484C16.711 5.71484 16.466 5.88768 16.3555 6.13134C15.1173 8.86834 13.2629 12.9738 13.2629 12.9738Z" fill="#E29D1D"/>
</svg>
