<svg width="95" height="84" viewBox="0 0 95 84" fill="none" xmlns="http://www.w3.org/2000/svg">
<path d="M94.426 39.6047C85.4818 22.2452 67.7748 10.5 47.4999 10.5C27.225 10.5 9.5131 22.2534 0.573868 39.6063C0.196576 40.3487 0 41.169 0 42.0008C0 42.8327 0.196576 43.6529 0.573868 44.3953C9.51805 61.7548 27.225 73.5 47.4999 73.5C67.7748 73.5 85.4867 61.7466 94.426 44.3937C94.8032 43.6513 94.9998 42.831 94.9998 41.9992C94.9998 41.1673 94.8032 40.3471 94.426 39.6047ZM47.4999 65.625C42.8026 65.625 38.2108 64.2394 34.3051 61.6435C30.3994 59.0475 27.3554 55.3578 25.5578 51.0409C23.7602 46.724 23.2899 41.9738 24.2063 37.391C25.1227 32.8082 27.3846 28.5986 30.7061 25.2946C34.0276 21.9906 38.2595 19.7405 42.8665 18.8289C47.4736 17.9174 52.2489 18.3852 56.5886 20.1733C60.9284 21.9615 64.6376 24.9895 67.2473 28.8747C69.857 32.7598 71.2499 37.3274 71.2499 42C71.2514 45.1029 70.6382 48.1757 69.4451 51.0427C68.2521 53.9097 66.5028 56.5147 64.2971 58.7088C62.0914 60.9028 59.4726 62.643 56.5904 63.8297C53.7083 65.0165 50.6192 65.6265 47.4999 65.625ZM47.4999 26.25C46.0867 26.2696 44.6826 26.4788 43.3255 26.8718C44.4441 28.3839 44.9809 30.2447 44.8385 32.1168C44.6962 33.9888 43.8841 35.7481 42.5495 37.0757C41.215 38.4032 39.4464 39.211 37.5644 39.3526C35.6824 39.4942 33.8118 38.9603 32.2917 37.8476C31.4261 41.0199 31.5823 44.3823 32.7384 47.4616C33.8946 50.541 35.9923 53.1821 38.7365 55.0134C41.4807 56.8446 44.7331 57.7737 48.0359 57.6699C51.3387 57.5661 54.5256 56.4347 57.1481 54.4348C59.7706 52.4349 61.6967 49.6673 62.6551 46.5215C63.6135 43.3758 63.5561 40.0102 62.4909 36.8986C61.4258 33.787 59.4065 31.086 56.7173 29.1757C54.0281 27.2655 50.8044 26.2423 47.4999 26.25Z" fill="#003391"/>
</svg>
