<svg width="91" height="91" viewBox="0 0 91 91" fill="none" xmlns="http://www.w3.org/2000/svg">
<circle cx="35.6377" cy="35.6377" r="35.6377" transform="matrix(0.942482 -0.334258 -0.334258 -0.942482 23.8243 91)" fill="url(#paint0_angular_3_82)"/>
<circle cx="24.7914" cy="24.7914" r="24.7914" transform="matrix(0.942482 -0.334258 -0.334258 -0.942482 30.4108 76.6078)" fill="white"/>
<path d="M70.2915 42.0567C68.0534 33.9651 79.5883 32.2435 80.6213 40.5073C80.6213 40.5073 72.1853 45.6722 70.2915 42.0567Z" fill="#003391" stroke="#003391"/>
<path d="M47.6891 58.432C45.8891 58.432 44.2211 58.144 42.6851 57.568C41.1491 56.992 39.8531 56.092 38.7971 54.868C37.7411 53.644 37.0691 52.048 36.7811 50.08H38.1851C38.7131 51.232 39.4091 52.192 40.2731 52.96C41.1611 53.728 42.1691 54.304 43.2971 54.688C44.4251 55.048 45.6491 55.228 46.9691 55.228C48.3851 55.228 49.4771 54.964 50.2451 54.436C51.0131 53.884 51.3971 53.068 51.3971 51.988C51.3971 51.244 51.1811 50.656 50.7491 50.224C50.3411 49.768 49.7891 49.42 49.0931 49.18C48.3971 48.94 47.6411 48.76 46.8251 48.64L44.3411 48.28C42.4691 48.016 40.7771 47.572 39.2651 46.948C37.7531 46.324 36.5651 45.46 35.7011 44.356C34.8371 43.252 34.4051 41.872 34.4051 40.216C34.4051 38.56 34.7891 37.204 35.5571 36.148C36.3491 35.068 37.4171 34.276 38.7611 33.772C40.1291 33.268 41.6651 33.016 43.3691 33.016C45.0491 33.016 46.5971 33.292 48.0131 33.844C49.4291 34.372 50.6291 35.224 51.6131 36.4C52.5971 37.576 53.2451 39.124 53.5571 41.044H52.2251C51.5531 39.412 50.4851 38.2 49.0211 37.408C47.5571 36.592 45.9371 36.184 44.1611 36.184C42.7931 36.184 41.7131 36.436 40.9211 36.94C40.1531 37.444 39.7691 38.224 39.7691 39.28C39.7691 40 39.9611 40.588 40.3451 41.044C40.7291 41.476 41.2451 41.812 41.8931 42.052C42.5651 42.292 43.2851 42.472 44.0531 42.592L46.5731 42.952C48.5411 43.24 50.2931 43.672 51.8291 44.248C53.3891 44.824 54.6131 45.64 55.5011 46.696C56.3891 47.728 56.8331 49.096 56.8331 50.8C56.8331 52.504 56.4491 53.92 55.6811 55.048C54.9371 56.176 53.8811 57.028 52.5131 57.604C51.1451 58.156 49.5371 58.432 47.6891 58.432ZM34.7651 58V50.08H36.7811L38.1131 52.852V58H34.7651ZM53.5571 41.044L52.2971 38.344V33.448H55.6451V41.044H53.5571Z" fill="#003391"/>
<defs>
<radialGradient id="paint0_angular_3_82" cx="0" cy="0" r="1" gradientUnits="userSpaceOnUse" gradientTransform="translate(35.6377 35.6377) rotate(-11.3099) scale(39.5037)">
<stop stop-color="white" stop-opacity="0"/>
<stop offset="0.12" stop-color="#003391" stop-opacity="0.5"/>
<stop offset="1" stop-color="#003391"/>
</radialGradient>
</defs>
</svg>
