<svg width="37" height="37" viewBox="0 0 37 37" fill="none" xmlns="http://www.w3.org/2000/svg">
<g clip-path="url(#clip0_5_181)">
<path d="M36.7501 28.2V33.2C36.7519 33.6641 36.6592 34.1236 36.4779 34.5489C36.2966 34.9742 36.0307 35.3559 35.6972 35.6697C35.3637 35.9835 34.97 36.2224 34.5413 36.3711C34.1126 36.5198 33.6583 36.5751 33.2076 36.5333C28.2072 35.976 23.4039 34.2235 19.1838 31.4166C15.2575 28.8577 11.9287 25.4436 9.43382 21.4166C6.68754 17.0686 4.97847 12.1183 4.44507 6.96662C4.40447 6.50574 4.45787 6.04123 4.60189 5.60267C4.7459 5.16411 4.97738 4.76111 5.28157 4.41933C5.58576 4.07755 5.95601 3.80447 6.36873 3.61749C6.78146 3.43052 7.22763 3.33373 7.67882 3.33329H12.5538C13.3424 3.32533 14.107 3.61176 14.7049 4.13918C15.3029 4.6666 15.6934 5.39904 15.8038 6.19996C16.0096 7.80007 16.3912 9.37117 16.9413 10.8833C17.16 11.4798 17.2073 12.1281 17.0777 12.7514C16.9481 13.3747 16.647 13.9468 16.2101 14.4L14.1463 16.5166C16.4596 20.6892 19.8281 24.144 23.8963 26.5166L25.9601 24.4C26.4019 23.9519 26.9597 23.643 27.5674 23.5101C28.1751 23.3772 28.8072 23.4257 29.3888 23.65C30.8631 24.2142 32.395 24.6056 33.9551 24.8166C34.7444 24.9308 35.4654 25.3386 35.9807 25.9624C36.496 26.5863 36.7698 27.3826 36.7501 28.2Z" stroke="white" stroke-width="2" stroke-linecap="round" stroke-linejoin="round"/>
</g>
<defs>
<clipPath id="clip0_5_181">
<rect width="37" height="37" fill="white"/>
</clipPath>
</defs>
</svg>
